<svg width="22" height="22" viewBox="0 0 22 22" fill="none" xmlns="http://www.w3.org/2000/svg">
<path d="M19.9374 18.9654L14.7454 13.7734C15.9931 12.2755 16.6153 10.3543 16.4825 8.40942C16.3498 6.46453 15.4723 4.64569 14.0327 3.33128C12.593 2.01687 10.7021 1.30808 8.75315 1.35236C6.80423 1.39664 4.94742 2.19059 3.56897 3.56903C2.19053 4.94748 1.39658 6.80429 1.3523 8.75321C1.30802 10.7021 2.01681 12.5931 3.33122 14.0327C4.64563 15.4723 6.46447 16.3498 8.40936 16.4826C10.3543 16.6153 12.2755 15.9932 13.7733 14.7455L18.9653 19.9375L19.9374 18.9654ZM2.74993 8.93749C2.74993 7.71372 3.11282 6.51743 3.79271 5.4999C4.4726 4.48237 5.43896 3.6893 6.56957 3.22098C7.70019 2.75267 8.94429 2.63013 10.1445 2.86888C11.3448 3.10763 12.4473 3.69693 13.3126 4.56226C14.178 5.4276 14.7673 6.53011 15.006 7.73037C15.2448 8.93062 15.1222 10.1747 14.6539 11.3053C14.1856 12.436 13.3925 13.4023 12.375 14.0822C11.3575 14.7621 10.1612 15.125 8.93743 15.125C7.29696 15.1232 5.7242 14.4707 4.56421 13.3107C3.40423 12.1507 2.75175 10.578 2.74993 8.93749Z" fill="white"/>
</svg>
