<svg width="20" height="20" viewBox="0 0 20 20" fill="none" xmlns="http://www.w3.org/2000/svg">
<g clip-path="url(#clip0_95_48)">
<path d="M16.2501 18.3333C16.5816 18.3333 16.8995 18.2016 17.134 17.9672C17.3684 17.7328 17.5001 17.4148 17.5001 17.0833C17.5001 16.7518 17.3684 16.4339 17.134 16.1994C16.8995 15.965 16.5816 15.8333 16.2501 15.8333C15.9186 15.8333 15.6006 15.965 15.3662 16.1994C15.1318 16.4339 15.0001 16.7518 15.0001 17.0833C15.0001 17.4148 15.1318 17.7328 15.3662 17.9672C15.6006 18.2016 15.9186 18.3333 16.2501 18.3333ZM7.91675 18.3333C8.24827 18.3333 8.56621 18.2016 8.80063 17.9672C9.03505 17.7328 9.16675 17.4148 9.16675 17.0833C9.16675 16.7518 9.03505 16.4339 8.80063 16.1994C8.56621 15.965 8.24827 15.8333 7.91675 15.8333C7.58523 15.8333 7.26728 15.965 7.03286 16.1994C6.79844 16.4339 6.66675 16.7518 6.66675 17.0833C6.66675 17.4148 6.79844 17.7328 7.03286 17.9672C7.26728 18.2016 7.58523 18.3333 7.91675 18.3333Z" fill="white" stroke="white" stroke-width="1.5" stroke-linecap="round" stroke-linejoin="round"/>
<path d="M4.16675 3.33332H18.3334L16.6667 12.5M4.16675 3.33332L5.83341 12.5H16.6667M4.16675 3.33332C4.02758 2.77749 3.33341 1.66666 1.66675 1.66666M16.6667 12.5H4.35841C2.87175 12.5 2.08341 13.1508 2.08341 14.1667C2.08341 15.1825 2.87175 15.8333 4.35841 15.8333H16.2501" stroke="white" stroke-width="1.5" stroke-linecap="round" stroke-linejoin="round"/>
</g>
<defs>
<clipPath id="clip0_95_48">
<rect width="20" height="20" fill="white"/>
</clipPath>
</defs>
</svg>
