<svg width="14" height="12" viewBox="0 0 14 12" fill="none" xmlns="http://www.w3.org/2000/svg">
<path d="M9.78542 1.94804L11.9778 4.06251C12.0701 4.15159 12.0701 4.29693 11.9778 4.38601L6.66944 9.50576L4.41389 9.74722C4.1125 9.78004 3.85729 9.53389 3.89132 9.24321L4.14167 7.06779L9.45 1.94804C9.54236 1.85896 9.69306 1.85896 9.78542 1.94804ZM13.7229 1.41121L12.5368 0.26724C12.1674 -0.0890799 11.567 -0.0890799 11.1951 0.26724L10.3347 1.09709C10.2424 1.18617 10.2424 1.33151 10.3347 1.42059L12.5271 3.53507C12.6194 3.62415 12.7701 3.62415 12.8625 3.53507L13.7229 2.70522C14.0924 2.34655 14.0924 1.76753 13.7229 1.41121ZM9.33333 8.1133V10.4997H1.55556V2.99824H7.14097C7.21875 2.99824 7.29167 2.96777 7.34757 2.91619L8.31979 1.97851C8.50451 1.80035 8.37326 1.49795 8.11319 1.49795H1.16667C0.522569 1.49795 0 2.00195 0 2.62317V10.8748C0 11.496 0.522569 12 1.16667 12H9.72222C10.3663 12 10.8889 11.496 10.8889 10.8748V7.17562C10.8889 6.92479 10.5753 6.80055 10.3906 6.97636L9.4184 7.91405C9.36493 7.96796 9.33333 8.03829 9.33333 8.1133Z" fill="#029E9D"/>
</svg>
