<svg width="12" height="14" viewBox="0 0 12 14" fill="none" xmlns="http://www.w3.org/2000/svg">
<path d="M2 0C0.896875 0 0 0.784766 0 1.75V12.25C0 13.2152 0.896875 14 2 14H10C11.1031 14 12 13.2152 12 12.25V4.375H8C7.44688 4.375 7 3.98398 7 3.5V0H2ZM8 0V3.5H12L8 0ZM2.5 1.75H4.5C4.775 1.75 5 1.94687 5 2.1875C5 2.42812 4.775 2.625 4.5 2.625H2.5C2.225 2.625 2 2.42812 2 2.1875C2 1.94687 2.225 1.75 2.5 1.75ZM2.5 3.5H4.5C4.775 3.5 5 3.69688 5 3.9375C5 4.17812 4.775 4.375 4.5 4.375H2.5C2.225 4.375 2 4.17812 2 3.9375C2 3.69688 2.225 3.5 2.5 3.5ZM4.19375 10.4398C4.00312 10.9949 3.41875 11.375 2.75625 11.375H2.5C2.225 11.375 2 11.1781 2 10.9375C2 10.6969 2.225 10.5 2.5 10.5H2.75625C2.97812 10.5 3.17188 10.3742 3.23438 10.1883L3.7 8.83477C3.80625 8.52578 4.13125 8.3125 4.5 8.3125C4.86875 8.3125 5.19375 8.52305 5.3 8.83477L5.6625 9.89023C5.89375 9.7207 6.1875 9.625 6.5 9.625C6.99687 9.625 7.45 9.87109 7.67188 10.2594L7.80937 10.5H9.5C9.775 10.5 10 10.6969 10 10.9375C10 11.1781 9.775 11.375 9.5 11.375H7.5C7.30937 11.375 7.1375 11.282 7.05312 11.1344L6.77812 10.6504C6.725 10.5574 6.61875 10.5 6.50313 10.5C6.3875 10.5 6.27813 10.5574 6.22813 10.6504L5.95312 11.1344C5.8625 11.2957 5.66563 11.3914 5.4625 11.375C5.25938 11.3586 5.08437 11.2355 5.02812 11.066L4.5 9.54297L4.19375 10.4398Z" fill="#029E9D"/>
</svg>
