<svg width="14" height="14" viewBox="0 0 14 14" fill="none" xmlns="http://www.w3.org/2000/svg">
<path d="M6.74335 13.9702C6.09881 14.0606 5.44261 13.944 4.86515 13.6377L2.70697 12.4858C2.13243 12.1795 1.66872 11.6983 1.3829 11.1121L0.312563 8.90733C0.0267498 8.32113 -0.0665768 7.65619 0.047165 7.01458L0.470051 4.5998C0.583793 3.95527 0.895854 3.36616 1.3654 2.9112L3.12403 1.20802C3.59358 0.753058 4.19145 0.461418 4.83599 0.37101L7.25665 0.0297899C7.90119 -0.0606184 8.55739 0.0560379 9.13485 0.36226L11.293 1.51424C11.8676 1.82046 12.3313 2.30167 12.6171 2.89078L13.6874 5.09267C13.9733 5.67887 14.0666 6.34381 13.9528 6.98542L13.527 9.4002C13.4133 10.0447 13.1012 10.6338 12.6317 11.0888L10.876 12.7891C10.4064 13.244 9.80855 13.5357 9.16401 13.6261L6.74335 13.9702ZM5.6001 10.2664C5.84762 10.2664 6.085 10.1681 6.26002 9.99303C6.43504 9.81801 6.53337 9.58064 6.53337 9.33312C6.53337 9.08561 6.43504 8.84824 6.26002 8.67322C6.085 8.4982 5.84762 8.39987 5.6001 8.39987C5.35258 8.39987 5.1152 8.4982 4.94018 8.67322C4.76516 8.84824 4.66683 9.08561 4.66683 9.33312C4.66683 9.58064 4.76516 9.81801 4.94018 9.99303C5.1152 10.1681 5.35258 10.2664 5.6001 10.2664ZM3.73357 4.66687C3.73357 4.91439 3.83189 5.15176 4.00692 5.32678C4.18194 5.5018 4.41932 5.60013 4.66683 5.60013C4.91435 5.60013 5.15173 5.5018 5.32675 5.32678C5.50177 5.15176 5.6001 4.91439 5.6001 4.66687C5.6001 4.41936 5.50177 4.18199 5.32675 4.00697C5.15173 3.83195 4.91435 3.73363 4.66683 3.73363C4.41932 3.73363 4.18194 3.83195 4.00692 4.00697C3.83189 4.18199 3.73357 4.41936 3.73357 4.66687ZM10.2664 6.53337C10.514 6.53337 10.7513 6.43505 10.9264 6.26003C11.1014 6.08501 11.1997 5.84764 11.1997 5.60013C11.1997 5.35261 11.1014 5.11524 10.9264 4.94022C10.7513 4.7652 10.514 4.66687 10.2664 4.66687C10.0189 4.66687 9.78154 4.7652 9.60651 4.94022C9.43149 5.11524 9.33317 5.35261 9.33317 5.60013C9.33317 5.84764 9.43149 6.08501 9.60651 6.26003C9.78154 6.43505 10.0189 6.53337 10.2664 6.53337Z" fill="#029E9D"/>
</svg>
