<svg width="14" height="14" viewBox="0 0 14 14" fill="none" xmlns="http://www.w3.org/2000/svg">
<path d="M7.04375 0.338929C7.02042 0.181443 6.90084 0.0531215 6.74335 0.0297903C6.09881 -0.0606183 5.44261 0.0560379 4.86515 0.362261L2.70697 1.51424C2.13243 1.82046 1.66872 2.30167 1.3829 2.88787L0.312563 5.09267C0.0267498 5.67887 -0.0665768 6.34381 0.047165 6.98542L0.470051 9.4002C0.583793 10.0447 0.895854 10.6338 1.3654 11.0888L3.12403 12.792C3.59358 13.2469 4.19145 13.5386 4.83599 13.629L7.25665 13.9702C7.90119 14.0606 8.55739 13.944 9.13485 13.6377L11.293 12.4858C11.8676 12.1795 12.3313 11.6983 12.6171 11.1092L13.6874 8.90733C13.9733 8.32113 14.0666 7.65619 13.9528 7.01458C13.9266 6.86001 13.7983 6.74336 13.6437 6.72002C12.1417 6.48088 10.9372 5.3464 10.596 3.87945C10.5435 3.6578 10.3627 3.48865 10.1381 3.45365C8.54572 3.19992 7.28873 1.93712 7.04083 0.338929H7.04375ZM5.6001 3.73363C5.84762 3.73363 6.085 3.83195 6.26002 4.00697C6.43504 4.18199 6.53337 4.41936 6.53337 4.66688C6.53337 4.91439 6.43504 5.15176 6.26002 5.32678C6.085 5.5018 5.84762 5.60013 5.6001 5.60013C5.35258 5.60013 5.1152 5.5018 4.94018 5.32678C4.76516 5.15176 4.66683 4.91439 4.66683 4.66688C4.66683 4.41936 4.76516 4.18199 4.94018 4.00697C5.1152 3.83195 5.35258 3.73363 5.6001 3.73363ZM3.73357 9.33313C3.73357 9.08561 3.83189 8.84824 4.00692 8.67322C4.18194 8.4982 4.41932 8.39987 4.66683 8.39987C4.91435 8.39987 5.15173 8.4982 5.32675 8.67322C5.50177 8.84824 5.6001 9.08561 5.6001 9.33313C5.6001 9.58064 5.50177 9.81801 5.32675 9.99303C5.15173 10.168 4.91435 10.2664 4.66683 10.2664C4.41932 10.2664 4.18194 10.168 4.00692 9.99303C3.83189 9.81801 3.73357 9.58064 3.73357 9.33313ZM10.2664 7.46663C10.514 7.46663 10.7513 7.56495 10.9264 7.73997C11.1014 7.91499 11.1997 8.15236 11.1997 8.39987C11.1997 8.64739 11.1014 8.88476 10.9264 9.05978C10.7513 9.2348 10.514 9.33313 10.2664 9.33313C10.0189 9.33313 9.78154 9.2348 9.60651 9.05978C9.43149 8.88476 9.33317 8.64739 9.33317 8.39987C9.33317 8.15236 9.43149 7.91499 9.60651 7.73997C9.78154 7.56495 10.0189 7.46663 10.2664 7.46663Z" fill="#029E9D"/>
</svg>
