<svg width="14" height="12" viewBox="0 0 14 12" fill="none" xmlns="http://www.w3.org/2000/svg">
<path d="M1.75 1.5C1.50937 1.5 1.3125 1.725 1.3125 2V2.69063L6.0293 7.11563C6.59531 7.64688 7.40742 7.64688 7.97344 7.11563L12.6875 2.69063V2C12.6875 1.725 12.4906 1.5 12.25 1.5H1.75ZM1.3125 4.63125V10C1.3125 10.275 1.50937 10.5 1.75 10.5H12.25C12.4906 10.5 12.6875 10.275 12.6875 10V4.63125L8.80469 8.275C7.75469 9.25937 6.24258 9.25937 5.19531 8.275L1.3125 4.63125ZM0 2C0 0.896875 0.784766 0 1.75 0H12.25C13.2152 0 14 0.896875 14 2V10C14 11.1031 13.2152 12 12.25 12H1.75C0.784766 12 0 11.1031 0 10V2Z" fill="#029E9D"/>
</svg>
