<svg width="10" height="12" viewBox="0 0 10 12" fill="none" xmlns="http://www.w3.org/2000/svg">
<path d="M10 4.92101C9.01701 4.92348 8.05812 4.60161 7.2588 4.00086V8.19067C7.25853 8.96667 7.03263 9.72408 6.61131 10.3616C6.18999 10.9992 5.59333 11.4865 4.90111 11.7584C4.20889 12.0303 3.45411 12.0738 2.73769 11.8832C2.02127 11.6925 1.37736 11.2768 0.892062 10.6915C0.406764 10.1062 0.103209 9.37936 0.0219868 8.60806C-0.0592357 7.83676 0.0857456 7.05781 0.437545 6.37536C0.789344 5.69291 1.33119 5.1395 1.99064 4.78911C2.65008 4.43873 3.39569 4.30808 4.12776 4.41463V6.52196C3.79276 6.41133 3.43304 6.41466 3.09995 6.53149C2.76686 6.64831 2.47745 6.87266 2.27305 7.17249C2.06864 7.47232 1.95969 7.83229 1.96176 8.20101C1.96383 8.56973 2.07681 8.92833 2.28456 9.22561C2.49232 9.52289 2.78423 9.74364 3.1186 9.85634C3.45298 9.96904 3.81272 9.96793 4.14645 9.85315C4.48018 9.73838 4.77084 9.51582 4.97692 9.21726C5.183 8.91869 5.29396 8.55939 5.29395 8.19067V0H7.2588C7.25744 0.174218 7.27134 0.348198 7.30033 0.519741C7.36861 0.902685 7.51057 1.26698 7.71754 1.59034C7.92451 1.9137 8.19213 2.18933 8.50403 2.40037C8.94777 2.70844 9.46803 2.87264 10 2.87252V4.92101Z" fill="#029E9D"/>
</svg>
